<?xml version="1.0" encoding="utf-8"?>
<!-- Generator: Adobe Illustrator 24.3.0, SVG Export Plug-In . SVG Version: 6.00 Build 0)  -->
<svg version="1.1" id="Layer_1" xmlns="http://www.w3.org/2000/svg" xmlns:xlink="http://www.w3.org/1999/xlink" x="0px"
	y="0px" viewBox="0 0 645.5 419.7" style="enable-background:new 0 0 645.5 419.7;" xml:space="preserve">

	<g>
		<defs>
			<rect id="SVGID_1_" width="645.5" height="419.7" />
		</defs>
		<clipPath id="SVGID_2_">
			<use xlink:href="#SVGID_1_" style="overflow:visible;" />
		</clipPath>
		<g class="st0">
			<g>
				<g>
					<g>
						<linearGradient id="SVGID_3_" gradientUnits="userSpaceOnUse" x1="-6.7938" y1="366.8518"
							x2="640.4898" y2="366.8518">
							<stop offset="6.142960e-02" style="stop-color:#8FE1FF" />
							<stop offset="1" style="stop-color:#CEEDFD;stop-opacity:0" />
						</linearGradient>
						<path class="st1" d="M640.1,395.7c-0.1-0.1-12.1-12-36-24.8c-22-11.8-59-26.9-110-31.5c-56.1-5.1-99.1,11.6-140.8,27.8
						c-31.4,12.2-63.8,24.8-101,27.4c-62.8,4.4-114.1-8.4-151.5-17.8c-13.8-3.4-25.7-6.4-35.6-7.9c-34.6-5.1-71.5,4.4-71.9,4.5
						l-0.1-0.5c0.4-0.1,37.4-9.6,72.1-4.5c9.9,1.5,21.8,4.4,35.6,7.9c37.4,9.3,88.6,22.1,151.3,17.8c37.1-2.6,69.5-15.2,100.8-27.3
						c41.7-16.2,84.8-32.9,141-27.8c51.1,4.6,88.2,19.7,110.3,31.6c23.9,12.8,35.9,24.8,36.1,24.9L640.1,395.7z" />
					</g>
					<g>
						<linearGradient id="SVGID_4_" gradientUnits="userSpaceOnUse" x1="-5.6336" y1="378.9479"
							x2="641.8101" y2="378.9479">
							<stop offset="6.142960e-02" style="stop-color:#8FE1FF" />
							<stop offset="1" style="stop-color:#CEEDFD;stop-opacity:0" />
						</linearGradient>
						<path class="st2" d="M641.4,406.7c-2.1-1.9-52.5-46.4-147-54.3c-15.2-1.2-30.3-0.9-44.9,1.1c-31.7,4.2-60.9,14.2-89,24
						c-34.2,11.8-69.6,24-108.7,25c-12.7,0.3-25.8-0.2-40.1-1.7c-37.6-3.8-71.2-12.1-98.2-18.8c-18.3-4.5-34.1-8.4-47.2-10
						c-32.4-4-68,4.1-71.7,5.8l-0.2-0.5c3.8-1.6,39.5-9.8,72-5.8c13.1,1.6,29,5.5,47.3,10.1c27,6.7,60.5,14.9,98.1,18.8
						c14.3,1.5,27.4,2,40.1,1.7c39-1,72.8-12.6,108.5-25c28.2-9.7,57.3-19.8,89.1-24c14.6-1.9,29.8-2.3,45-1.1
						c94.6,7.9,145.2,52.5,147.3,54.4L641.4,406.7z" />
					</g>
					<g>
						<linearGradient id="SVGID_5_" gradientUnits="userSpaceOnUse" x1="-4.4332" y1="391.0078"
							x2="643.1407" y2="391.0078">
							<stop offset="6.142960e-02" style="stop-color:#8FE1FF" />
							<stop offset="1" style="stop-color:#CEEDFD;stop-opacity:0" />
						</linearGradient>
						<path class="st3" d="M642.8,417.7c-0.5-0.5-54.4-45.5-147.9-52.3c-15.2-1.1-30.2-0.5-44.8,1.7c-27.6,4.2-54.2,12.4-80,20.4
						c-36.5,11.2-74.2,22.8-114.2,22.8c-1.5,0-2.9,0-4.4,0c-12.2-0.3-25.2-1.6-39.6-4c-29.5-4.9-56.7-11.8-80.8-17.9
						c-24.7-6.2-46-11.6-63.7-13.5c-33.1-3.4-66.9,5-71.6,7.1l-0.2-0.5c4.8-2.1,38.7-10.5,71.9-7.1c17.7,1.8,39.1,7.2,63.8,13.5
						c24,6.1,51.3,13,80.7,17.9c14.4,2.4,27.3,3.7,39.5,4c41.5,0.9,80.6-11.1,118.4-22.8c25.8-7.9,52.5-16.1,80.1-20.4
						c14.6-2.3,29.8-2.8,45-1.7c93.7,6.8,147.8,52,148.3,52.4L642.8,417.7z" />
					</g>
					<g>
						<linearGradient id="SVGID_6_" gradientUnits="userSpaceOnUse" x1="-3.233" y1="402.7615"
							x2="644.472" y2="402.7615">
							<stop offset="6.142960e-02" style="stop-color:#8FE1FF" />
							<stop offset="1" style="stop-color:#CEEDFD;stop-opacity:0" />
						</linearGradient>
						<path class="st4" d="M644.1,428.7c-1.9-1.7-17-12.8-43.3-24.4c-23.1-10.2-60.1-23-105.6-25.9c-15.3-1-30.4-0.2-44.8,2.4
						c-22.7,4-45.8,10.4-68,16.6c-42.5,11.7-86.4,23.9-131.3,20.8c-12.3-0.8-24.7-2.8-39-6.2c-19.5-4.6-38-9.7-55.9-14.6
						C122.3,388,93,380,68.5,377.9c-30.8-2.6-63.7,4.9-71.5,8.4l-0.2-0.5c8.2-3.6,40.4-11,71.8-8.4c24.5,2,53.8,10.1,87.8,19.4
						c17.9,4.9,36.4,10,55.9,14.6c14.3,3.4,26.7,5.4,38.9,6.2c44.8,3.1,88.7-9.1,131.1-20.8c22.3-6.2,45.3-12.5,68.1-16.6
						c14.5-2.6,29.6-3.4,45-2.4c45.6,2.9,82.7,15.7,105.8,25.9c26.3,11.6,41.5,22.8,43.4,24.5L644.1,428.7z" />
					</g>
					<g>
						<linearGradient id="SVGID_7_" gradientUnits="userSpaceOnUse" x1="-2.0326" y1="409.8636"
							x2="645.8027" y2="409.8636">
							<stop offset="6.142960e-02" style="stop-color:#8FE1FF" />
							<stop offset="1" style="stop-color:#CEEDFD;stop-opacity:0" />
						</linearGradient>
						<path class="st5" d="M645.4,439.6c-2.8-2.5-19.6-13.5-45.7-24.3c-23.4-9.7-60.4-21.7-104.1-24c-15.6-0.8-30.6,0.2-44.8,3
						c-17,3.4-34,7.7-52,12.3c-48.6,12.3-98.8,25-148.2,19.3c-12.2-1.4-24.8-4.2-38.4-8.5c-6.4-2-12.8-4.1-19.1-6.1
						c-45.5-14.5-88.6-28.2-123.5-30.5c-30.3-1.9-61.4,5.3-71.4,9.7l-0.2-0.5c12-5.2,43.6-11.5,71.7-9.7c35,2.2,78.1,16,123.6,30.5
						c6.3,2,12.7,4,19.1,6.1c13.6,4.3,26.2,7.1,38.3,8.5c49.3,5.7,99.5-7,148-19.3c18-4.6,35-8.9,52-12.3c14.2-2.9,29.3-3.9,44.9-3
						c43.8,2.4,80.9,14.4,104.3,24.1c26.2,10.8,43,21.8,45.9,24.4L645.4,439.6z" />
					</g>
					<g>
						<linearGradient id="SVGID_8_" gradientUnits="userSpaceOnUse" x1="-0.8322" y1="416.9264"
							x2="647.1334" y2="416.9264">
							<stop offset="6.142960e-02" style="stop-color:#8FE1FF" />
							<stop offset="1" style="stop-color:#CEEDFD;stop-opacity:0" />
						</linearGradient>
						<path class="st6" d="M646.8,450.6c-3.6-3.3-22.1-14-48.2-24.1c-23.6-9.1-60.6-20.3-102.6-22.2c-15.8-0.7-30.9,0.5-44.8,3.7
						c-9.6,2.2-19.4,4.5-29.7,7c-54.2,13.1-115.5,28-171.3,18.7c-12.5-2.1-24.8-5.6-37.8-10.8c-48-19.2-98.4-37.2-141.7-39.1
						c-27.1-1.2-57,4.7-71.3,11l-0.2-0.5c14.4-6.3,44.3-12.3,71.5-11c43.3,1.9,93.8,20,141.8,39.1c13,5.2,25.3,8.7,37.7,10.8
						c55.6,9.2,117-5.6,171.1-18.7c10.3-2.5,20.1-4.9,29.7-7c13.9-3.2,29-4.4,44.9-3.7c42.1,1.9,79.1,13.1,102.8,22.2
						c26.2,10.1,44.7,20.9,48.3,24.2L646.8,450.6z" />
					</g>
					<g>
						<linearGradient id="SVGID_9_" gradientUnits="userSpaceOnUse" x1="0.3683" y1="423.9655"
							x2="648.4641" y2="423.9655">
							<stop offset="6.142960e-02" style="stop-color:#8FE1FF" />
							<stop offset="1" style="stop-color:#CEEDFD;stop-opacity:0" />
						</linearGradient>
						<path class="st7" d="M648.1,461.6c-3.7-3.3-22.4-13.8-50.6-23.9c-23.9-8.5-60.8-19-101.2-20.4c-16.2-0.5-31.2,0.9-44.8,4.3
						c-41,10.4-98,24.8-152.1,24.8c-17,0-33.8-1.4-49.7-4.9c-12.7-2.7-25.2-7.1-37.3-13.1c-54.3-26.6-101.6-40.7-140.7-41.7
						c-28-0.7-55.9,5.6-71.2,12.3l-0.2-0.5c15.3-6.7,43.3-13.1,71.4-12.3c39.2,1,86.6,15.1,141,41.7c12,5.9,24.5,10.3,37.1,13
						c66.3,14.3,147.7-6.3,201.6-20c13.6-3.4,28.7-4.9,44.9-4.4c40.4,1.4,77.4,11.8,101.3,20.4c28.3,10.1,47.1,20.6,50.8,24
						L648.1,461.6z" />
					</g>
					<g>
						<linearGradient id="SVGID_10_" gradientUnits="userSpaceOnUse" x1="1.5684" y1="430.9789"
							x2="649.7953" y2="430.9789">
							<stop offset="6.142960e-02" style="stop-color:#8FE1FF" />
							<stop offset="1" style="stop-color:#CEEDFD;stop-opacity:0" />
						</linearGradient>
						<path class="st8" d="M649.4,472.6c-4.3-3.9-24.2-14.1-53.1-23.7c-24.1-8-61-17.7-99.7-18.6c-16.6-0.4-31.6,1.3-44.7,5
						c-34,9.6-68.1,16.3-98.6,19.5c-40.3,4.2-75.3,2.4-104-5.3c-13.1-3.5-25.4-8.7-36.7-15.3c-33.7-20-85.4-43.9-139.8-44.2
						c-24.2-0.2-51.4,5-71,13.6L1.6,403c19.7-8.6,47-13.8,71.3-13.6c54.5,0.4,106.3,24.3,140.1,44.3c11.2,6.6,23.5,11.8,36.6,15.3
						c28.6,7.7,63.6,9.4,103.8,5.3c30.5-3.2,64.5-9.9,98.5-19.4c13.2-3.7,28.3-5.4,44.9-5c38.8,0.9,75.7,10.6,99.8,18.6
						c29.3,9.7,48.8,19.8,53.3,23.8L649.4,472.6z" />
					</g>
					<g>
						<linearGradient id="SVGID_11_" gradientUnits="userSpaceOnUse" x1="2.7689" y1="437.9613"
							x2="651.126" y2="437.9613">
							<stop offset="6.142960e-02" style="stop-color:#8FE1FF" />
							<stop offset="1" style="stop-color:#CEEDFD;stop-opacity:0" />
						</linearGradient>
						<path class="st9" d="M650.8,483.6c-11.2-10-86.7-39.5-153.7-40.3c-17-0.2-32,1.7-44.7,5.7c-30,9.3-65,15.7-98.6,18.1
						c-40.2,2.8-76.5-0.6-104.8-9.7c-13.6-4.3-25.7-10.3-36.1-17.6c-42.9-30.2-91.3-46.8-136.5-46.8c-0.8,0-1.5,0-2.3,0
						c-24.4,0.3-49.6,5.6-70.9,14.9l-0.2-0.5c21.4-9.3,46.7-14.6,71.1-14.9c46-0.6,95.4,16.1,139.2,46.9c10.4,7.3,22.5,13.2,36,17.5
						c59.9,19.2,145.2,9.6,203.1-8.4c12.7-4,27.8-5.9,44.9-5.7c67.1,0.7,142.9,30.3,154.1,40.4L650.8,483.6z" />
					</g>
					<g>
						<linearGradient id="SVGID_12_" gradientUnits="userSpaceOnUse" x1="3.9693" y1="444.9058"
							x2="652.4568" y2="444.9058">
							<stop offset="6.142960e-02" style="stop-color:#8FE1FF" />
							<stop offset="1" style="stop-color:#CEEDFD;stop-opacity:0" />
						</linearGradient>
						<path class="st10" d="M652.1,494.5c-7.8-7-42.5-20.4-81.6-29.2c-28.3-6.4-81.3-15.2-117.7-2.7c-33.7,11.5-80.8,17.9-123,16.7
						c-24-0.7-45.8-3.7-65-8.9c-21.3-5.8-38.8-14.3-51.9-25.1c-28.6-23.7-61.9-39.7-96.5-46.2c-18.3-3.4-36.9-4.2-55.3-2.2
						c-19.4,2.1-38.5,7.2-57,15.2L4,411.6c18.5-8.1,37.8-13.2,57.2-15.3c18.4-2,37-1.2,55.4,2.2c34.6,6.5,68.1,22.5,96.7,46.3
						c13,10.8,30.4,19.2,51.7,25c19.1,5.2,40.9,8.2,64.8,8.9c42.1,1.2,89.1-5.2,122.8-16.7c36.5-12.5,89.6-3.7,118,2.7
						c39.3,8.8,74,22.3,81.9,29.3L652.1,494.5z" />
					</g>
				</g>
				<linearGradient id="SVGID_13_" gradientUnits="userSpaceOnUse" x1="319.4286" y1="499.7737" x2="319.4286"
					y2="380.0772">
					<stop offset="6.104040e-02" style="stop-color:#004ABE" />
					<stop offset="1" style="stop-color:#CEEDFD;stop-opacity:0" />
				</linearGradient>
				<path class="st11"
					d="M643.5,477.2C570,411,434.2,454.5,350.1,458.3C219.6,464.3,125.7,338-4.7,394.8v105h648.2V477.2z" />
				<linearGradient id="SVGID_14_" gradientUnits="userSpaceOnUse" x1="225.0417" y1="347.1115" x2="645.816"
					y2="347.1115">
					<stop offset="0" style="stop-color:#CEEDFD;stop-opacity:0" />
					<stop offset="0.9385" style="stop-color:#0090D8" />
				</linearGradient>
				<path class="st12" d="M645.8,458c-4.9-2.5-10-4.8-15.2-6.7c-5.5-2.1-11.2-3.9-17-5.4c-6.3-1.7-12.7-3.1-19.2-4.2
				c-7.1-1.3-14.3-2.3-21.5-3c-8-0.9-16.1-1.5-24.1-1.9c-9-0.5-18-0.8-26.9-0.9c-10-0.1-20-0.1-30,0.1c-11.1,0.2-22.2,0.6-33.3,1.1
				c-12.3,0.5-24.5,1.2-36.8,2c-13.5,0.8-27,1.8-40.5,2.8c-12.4,0.9-24.9,1.5-37.4,1.6c-10.3,0-20.7-0.3-30.9-1.2
				c-8.4-0.7-16.8-1.8-25-3.3c-6.7-1.3-13.4-2.8-20-4.9c-5.2-1.6-10.3-3.6-15.2-5.9c-3.9-1.8-7.7-3.9-11.2-6.3
				c-2.7-1.9-5.4-3.9-7.7-6.2c-1.8-1.7-3.5-3.5-5-5.5c-1-1.3-1.9-2.7-2.7-4.2c-0.4-0.8-0.8-1.5-1.1-2.4c0-0.1-0.1-0.2-0.1-0.3
				c0.5,0.7,1,1.3,1.5,1.9c1.5,1.7,3.1,3.3,4.8,4.8c2.7,2.3,5.6,4.4,8.6,6.3c4.1,2.6,8.5,4.8,12.9,6.6c5.7,2.4,11.6,4.2,17.6,5.6
				c7.5,1.7,15.2,2.8,22.9,3.3c9.5,0.6,19,0.5,28.5-0.3c11.7-0.9,23.4-2.8,34.9-5.2c14-3,27.8-6.9,41.3-11.4
				c14-4.7,27.9-10,41.4-15.9c12.3-5.4,24.3-11.3,36.1-17.7c11.2-6.1,22.2-12.6,32.9-19.5c10.1-6.5,20-13.4,29.7-20.5
				c8.9-6.6,17.6-13.5,26.1-20.6c7.8-6.5,15.4-13.2,22.8-20.1c6.5-6.1,12.9-12.3,19.1-18.6c5.3-5.4,10.5-10.9,15.5-16.5
				c4-4.4,7.9-8.9,11.7-13.5c2.7-3.2,5.3-6.5,7.9-9.7c1.3-1.7,2.7-3.5,4-5.2c0.2-0.2,0.3-0.4,0.5-0.6L645.8,458z" />
				<linearGradient id="SVGID_15_" gradientUnits="userSpaceOnUse" x1="-4.6692" y1="362.2317" x2="426.6436"
					y2="362.2317">
					<stop offset="6.142960e-02" style="stop-color:#8FE1FF" />
					<stop offset="1" style="stop-color:#CEEDFD;stop-opacity:0" />
				</linearGradient>
				<path class="st13" d="M-4.7,310c76-8.7,152.7,15.4,215.2,56.7c70,46.2,149.1,49.6,216.1-4.7C393.3,417.4,287,430.4,233.2,401
				c-28.3-15.4-50.5-39.7-78.4-55.8c-48.2-27.8-104.4-33.6-159.4-30.1V310z" />
			</g>
			<g>
				<linearGradient id="SVGID_16_" gradientUnits="userSpaceOnUse" x1="322.775" y1="71.2495" x2="322.775"
					y2="-20.8137">
					<stop offset="0" style="stop-color:#CEEDFD;stop-opacity:0" />
					<stop offset="0.9389" style="stop-color:#0087D2" />
				</linearGradient>
				<path class="st14" d="M-1.2,48.2C71.4,18.9,157.8,12.5,234.5,27c92.5,17.6,181.8,55.1,277.9,41.2c42.4-6.2,94.8-21.9,134.4,3.1
				v-92.1h-648V48.2z" />
				<linearGradient id="SVGID_17_" gradientUnits="userSpaceOnUse" x1="-5.0979" y1="81.7574" x2="446.4951"
					y2="81.7574">
					<stop offset="6.142960e-02" style="stop-color:#8FE1FF" />
					<stop offset="1" style="stop-color:#CEEDFD;stop-opacity:0" />
				</linearGradient>
				<path class="st15" d="M446.3,71.2c-11.7,4.2-24.5,6.8-37.3,8.5c-13.7,1.8-27.7,2.5-41.6,2.3c-13.1-0.2-26.3-1.2-39.2-3.4
				c-16-2.7-31.6-6.5-47-10.5c-15.5-4-30.9-8.2-46.5-11.9c-15.5-3.7-31.2-6.8-47.2-9.2c-16-2.4-32.1-4-48.4-4.7
				c-16.2-0.8-32.5-0.7-48.6,0.4c-15.9,1-31.7,3-47,6c-14.1,2.8-28,6.7-40.2,12.8c-2.9,1.5-5.7,3.1-8.4,4.8
				c18.6-2.3,37.5-3.5,56.3-3.4c18.9,0,37.7,1.2,56.3,3.5c18.2,2.3,36.4,5,53.8,9.7c15.4,4.1,30,9.7,44.4,15.4
				c14.4,5.7,28.6,11.7,43.3,16.9c14.4,5.1,29.5,9.3,45.3,11.5c14.3,2,29,2.4,43.6,1.4c14.6-1,29-3.5,42.6-7.4
				c13.5-3.9,26.3-9.2,37.6-15.9c5.3-3.2,10.1-6.7,14.8-10.3c4.4-3.4,9.1-6.9,11.9-11.1C446,74.9,446.9,73,446.3,71.2z" />
				<g>
					<g>
						<linearGradient id="SVGID_18_" gradientUnits="userSpaceOnUse" x1="149.3374" y1="87.7775"
							x2="685.6007" y2="87.7775">
							<stop offset="0" style="stop-color:#CEEDFD;stop-opacity:0" />
							<stop offset="0.9382" style="stop-color:#00AEFF" />
						</linearGradient>
						<path class="st16" d="M685.5,186.7c-61.3-13.9-119.8-41.5-169.1-79.7c-6.8-5.3-13.5-10.8-20.1-16.2
						c-12.5-10.3-25.5-21-39.4-30.1c-24.6-16-48.4-24-70.8-23.7c-12.8,0.2-25.6,3.1-37.9,6c-5.5,1.3-11.2,2.6-16.8,3.6
						c-32.1,6-66.1,3.8-98.5-6.4c-32.3-10.2-61.3-27.8-83.7-51l0.4-0.4c22.4,23.1,51.2,40.7,83.5,50.8c32.3,10.2,66.2,12.3,98.2,6.3
						c5.6-1.1,11.3-2.4,16.8-3.6c12.4-2.9,25.1-5.8,38-6c22.4-0.3,46.3,7.7,71.1,23.8c13.9,9.1,26.9,19.8,39.4,30.1
						c6.5,5.4,13.3,10.9,20.1,16.2c49.2,38.1,107.6,65.7,168.8,79.6L685.5,186.7z" />
					</g>
					<g>
						<linearGradient id="SVGID_19_" gradientUnits="userSpaceOnUse" x1="149.861" y1="81.7573"
							x2="685.7625" y2="81.7573">
							<stop offset="0" style="stop-color:#CEEDFD;stop-opacity:0" />
							<stop offset="0.9382" style="stop-color:#00AEFF" />
						</linearGradient>
						<path class="st17" d="M685.6,178.4c-61.4-14.8-119.8-41.7-169-77.7c-6.8-5-13.6-10.3-20.1-15.3c-7.9-6.1-16-12.4-24.2-18.3
						c-5.6-4-10.7-7.4-15.6-10.5c-24.7-15.3-48.5-22.9-70.7-22.7c-12.7,0.1-25.3,2.8-37.5,5.4c-5.6,1.2-11.3,2.4-17,3.4
						c-30.5,5.2-62.9,3.1-93.5-6.2c-16.3-4.9-32.2-11.9-47.3-20.7c-15.1-8.8-28.8-19-40.8-30.3l0.4-0.4
						c11.9,11.3,25.6,21.5,40.7,30.3c15.1,8.8,31,15.7,47.2,20.6c30.5,9.2,62.8,11.4,93.2,6.2c5.7-1,11.4-2.2,17-3.4
						c12.2-2.6,24.9-5.3,37.6-5.5c22.3-0.2,46.2,7.4,71,22.8c5,3.1,10.1,6.5,15.7,10.5c8.2,5.9,16.4,12.2,24.2,18.3
						c6.5,5.1,13.3,10.4,20.1,15.3c49.1,36,107.5,62.8,168.8,77.6L685.6,178.4z" />
					</g>
					<g>
						<linearGradient id="SVGID_20_" gradientUnits="userSpaceOnUse" x1="150.3855" y1="75.7368"
							x2="685.9238" y2="75.7368">
							<stop offset="0" style="stop-color:#CEEDFD;stop-opacity:0" />
							<stop offset="0.9382" style="stop-color:#00AEFF" />
						</linearGradient>
						<path class="st18" d="M685.8,170.2c-61.6-15.7-120-42-168.9-75.8c-6.8-4.7-13.6-9.7-20.1-14.5c-8-5.9-16.3-11.9-24.6-17.5
						c-5.6-3.8-10.7-7-15.7-9.9c-24.9-14.5-48.6-21.8-70.7-21.7c-12.5,0.1-25,2.5-37,4.9c-5.7,1.1-11.5,2.3-17.3,3.2
						c-30.5,4.7-62.7,2.1-92.9-7.3c-15.7-4.9-31.5-11.9-47-20.8c-14.8-8.5-29-18.5-41.1-28.9l0.4-0.4c12,10.4,26.2,20.4,41,28.8
						C207.2,19,223,26,238.6,30.9c30.2,9.5,62.2,12,92.7,7.3c5.8-0.9,11.6-2,17.3-3.2c12.1-2.4,24.6-4.8,37.1-4.9
						c22.2-0.1,46,7.2,71,21.8c5,2.9,10.2,6.2,15.8,10c8.4,5.6,16.6,11.7,24.6,17.6c6.5,4.8,13.3,9.8,20.1,14.5
						c48.8,33.8,107.2,60,168.7,75.7L685.8,170.2z" />
					</g>
					<g>
						<linearGradient id="SVGID_21_" gradientUnits="userSpaceOnUse" x1="150.9109" y1="69.7161"
							x2="686.0851" y2="69.7161">
							<stop offset="0" style="stop-color:#CEEDFD;stop-opacity:0" />
							<stop offset="0.9382" style="stop-color:#00AEFF" />
						</linearGradient>
						<path class="st19" d="M685.9,161.9c-62.1-16.8-120.5-42.3-168.9-73.8c-6.8-4.4-13.5-9.1-20.1-13.6c-8.1-5.6-16.6-11.4-25-16.8
						c-5.6-3.6-10.8-6.6-15.8-9.4c-25-13.8-48.7-20.7-70.7-20.7c-12.4,0-24.6,2.2-36.5,4.4c-5.8,1-11.7,2.1-17.6,2.9
						c-30.5,4.2-62.4,1.2-92.3-8.5c-15.1-4.9-30.8-12-46.7-21c-14.7-8.3-29-17.8-41.3-27.5l0.3-0.4c12.3,9.7,26.6,19.1,41.3,27.4
						c15.9,9,31.6,16,46.6,20.9c29.8,9.7,61.6,12.6,92.1,8.5c5.9-0.8,11.8-1.9,17.6-2.9c11.9-2.1,24.2-4.4,36.6-4.4c0,0,0.1,0,0.1,0
						c22,0,45.8,7,70.8,20.8c5,2.8,10.2,5.9,15.9,9.4c8.5,5.4,16.9,11.2,25.1,16.8c6.5,4.5,13.3,9.2,20.1,13.6
						c48.3,31.5,106.7,57,168.7,73.8L685.9,161.9z" />
					</g>
					<g>
						<linearGradient id="SVGID_22_" gradientUnits="userSpaceOnUse" x1="151.4375" y1="63.6955"
							x2="686.2464" y2="63.6955">
							<stop offset="0" style="stop-color:#CEEDFD;stop-opacity:0" />
							<stop offset="0.9382" style="stop-color:#00AEFF" />
						</linearGradient>
						<path class="st20" d="M686.1,153.7c-63.8-18.2-120.5-42.3-168.8-71.9c-6.8-4.1-13.5-8.5-20-12.7c-8.3-5.4-16.9-10.9-25.5-16
						c-5.7-3.4-10.9-6.3-16-8.9c-25.1-13-48.8-19.6-70.6-19.7c-0.1,0-0.2,0-0.3,0c-12,0-24,1.9-35.7,3.8c-5.9,1-12,1.9-18,2.7
						c-30.5,3.6-62.2,0.3-91.7-9.7c-14.6-4.9-29.8-11.8-46.4-21.1c-14.3-8-28.7-17-41.6-26l0.3-0.4c12.9,9,27.3,18,41.6,26
						C210,9,225.1,15.9,239.7,20.8c29.4,9.9,61,13.3,91.5,9.7c6-0.7,12.1-1.7,18-2.7c11.7-1.9,23.9-3.9,36.1-3.8
						c21.9,0.1,45.7,6.7,70.9,19.8c5.1,2.6,10.3,5.5,16,8.9c8.7,5.1,17.2,10.7,25.5,16c6.5,4.2,13.2,8.6,20,12.7
						c48.2,29.5,104.9,53.7,168.7,71.8L686.1,153.7z" />
					</g>
					<g>
						<linearGradient id="SVGID_23_" gradientUnits="userSpaceOnUse" x1="151.9653" y1="57.675"
							x2="686.4077" y2="57.675">
							<stop offset="0" style="stop-color:#CEEDFD;stop-opacity:0" />
							<stop offset="0.9382" style="stop-color:#00AEFF" />
						</linearGradient>
						<path class="st21" d="M686.3,145.4c-65.1-19.5-121.8-43-168.7-69.9c-6.7-3.9-13.4-7.9-19.9-11.8c-8.5-5.1-17.3-10.4-26.1-15.3
						c-5.7-3.2-11-5.9-16.1-8.4c-25.2-12.3-48.9-18.5-70.6-18.7c-12-0.1-23.9,1.6-35.4,3.3c-6,0.9-12.3,1.8-18.4,2.4
						c-30.5,3.1-62-0.7-91.1-10.8c-13.9-4.9-28.6-11.6-46.1-21.3c-13.3-7.3-27.4-15.6-41.9-24.6l0.3-0.4c14.5,9,28.6,17.3,41.9,24.6
						c17.5,9.6,32.2,16.4,46.1,21.2c29,10.2,60.5,13.9,90.9,10.8c6.1-0.6,12.4-1.5,18.4-2.4c11.5-1.7,23.5-3.4,35.5-3.3
						c21.7,0.2,45.6,6.5,70.8,18.8c5.1,2.5,10.4,5.2,16.1,8.4c8.8,4.9,17.6,10.2,26.1,15.3c6.5,3.9,13.2,7.9,19.9,11.8
						c46.9,26.9,103.6,50.4,168.6,69.9L686.3,145.4z" />
					</g>
					<g>
						<linearGradient id="SVGID_24_" gradientUnits="userSpaceOnUse" x1="152.4943" y1="51.6546"
							x2="686.5689" y2="51.6546">
							<stop offset="0" style="stop-color:#CEEDFD;stop-opacity:0" />
							<stop offset="0.9382" style="stop-color:#00AEFF" />
						</linearGradient>
						<path class="st22" d="M686.4,137.2c-69.1-21.8-122.7-43.4-168.7-68c-6.6-3.6-13.2-7.3-19.6-10.9c-8.7-4.9-17.7-9.9-26.7-14.6
						c-5.7-3-11-5.5-16.2-7.9c-25.6-11.7-48.7-17.4-70.6-17.7C373,18.1,361.3,19.6,350,21c-6.2,0.8-12.6,1.6-18.9,2.1
						c-30.5,2.6-61.8-1.6-90.6-12c-16.7-6-32.5-14.2-45.8-21.4c-8.5-4.6-16.9-9.2-25-13.7c-6.1-3.3-11.8-6.5-17.2-9.4l0.3-0.5
						c5.4,2.9,11.1,6.1,17.2,9.4c8.1,4.5,16.5,9.1,25,13.7c13.3,7.2,29.1,15.3,45.8,21.4c28.7,10.4,59.9,14.5,90.3,12
						c6.3-0.5,12.7-1.3,18.9-2.1c11.3-1.4,23-2.9,34.8-2.8c21.9,0.3,45.1,6.1,70.8,17.7c5.1,2.3,10.4,4.9,16.2,7.9
						c9,4.7,18,9.7,26.7,14.6c6.4,3.6,13,7.3,19.6,10.9c45.9,24.6,99.5,46.2,168.6,67.9L686.4,137.2z" />
					</g>
					<g>
						<linearGradient id="SVGID_25_" gradientUnits="userSpaceOnUse" x1="153.0243" y1="45.6343"
							x2="686.7308" y2="45.6343">
							<stop offset="0" style="stop-color:#CEEDFD;stop-opacity:0" />
							<stop offset="0.9382" style="stop-color:#00AEFF" />
						</linearGradient>
						<path class="st23" d="M686.6,129c-52.9-17.5-114.4-39-168.6-66c-6.5-3.2-13-6.6-19.3-9.9c-8.9-4.7-18.2-9.5-27.5-13.9
						c-5.8-2.8-11.1-5.2-16.3-7.4c-25.7-10.9-48.8-16.3-70.5-16.7c-11.5-0.2-22.9,1.1-34,2.3c-6.4,0.7-13,1.4-19.4,1.9
						c-30.5,2-61.6-2.5-90-13.2c-15.8-5.9-31.2-13.9-45.5-21.5c-15.9-8.4-30-15.9-42.5-21.7l0.2-0.5c12.5,5.8,26.6,13.3,42.5,21.7
						c14.4,7.6,29.7,15.6,45.5,21.5c28.3,10.6,59.3,15.1,89.8,13.1c6.5-0.4,13-1.2,19.4-1.9c11.1-1.2,22.6-2.5,34.1-2.3
						c21.8,0.3,44.9,5.8,70.7,16.7c5.2,2.2,10.5,4.6,16.3,7.4c9.3,4.4,18.5,9.3,27.5,13.9c6.3,3.3,12.8,6.7,19.3,9.9
						c54.2,27,115.6,48.5,168.5,66L686.6,129z" />
					</g>
					<g>
						<linearGradient id="SVGID_26_" gradientUnits="userSpaceOnUse" x1="153.5552" y1="39.6143"
							x2="686.892" y2="39.6143">
							<stop offset="0" style="stop-color:#CEEDFD;stop-opacity:0" />
							<stop offset="0.9382" style="stop-color:#00AEFF" />
						</linearGradient>
						<path class="st24" d="M686.7,120.7l-9.6-3.3c-53.5-18.5-108.9-37.7-158.9-60.8c-6.3-2.9-12.7-6-18.8-8.9
						c-9.2-4.4-18.8-9-28.3-13.2c-5.8-2.6-11.2-4.8-16.4-6.8c-25.9-10.1-48.9-15.2-70.5-15.7c-11.2-0.2-22.4,0.8-33.2,1.8
						c-6.6,0.6-13.4,1.2-20.1,1.6c-30.5,1.5-61.4-3.5-89.4-14.3c-14.9-5.8-29.3-13.3-43.3-20.6l-2-1c-11.5-6-28.4-14.7-42.7-20.3
						l0.2-0.5c14.4,5.7,31.3,14.3,42.8,20.3l2,1c13.9,7.3,28.4,14.9,43.2,20.6c27.9,10.8,58.7,15.8,89.2,14.3
						c6.7-0.3,13.5-1,20.1-1.6c10.8-1,22-2,33.2-1.8c21.6,0.4,44.8,5.6,70.7,15.7c5.2,2,10.6,4.3,16.4,6.8
						c9.6,4.2,19.1,8.8,28.4,13.2c6.1,2.9,12.5,6,18.8,8.9c50,23.1,105.4,42.2,158.9,60.7l9.6,3.3L686.7,120.7z" />
					</g>
					<g>
						<linearGradient id="SVGID_27_" gradientUnits="userSpaceOnUse" x1="154.0874" y1="33.5948"
							x2="687.0538" y2="33.5948">
							<stop offset="0" style="stop-color:#CEEDFD;stop-opacity:0" />
							<stop offset="0.9382" style="stop-color:#00AEFF" />
						</linearGradient>
						<path class="st25" d="M686.9,112.5c-16.3-5.9-33-11.8-49.2-17.5c-39.9-14-81.2-28.5-119.2-44.7c-6.1-2.6-12.2-5.3-18.1-7.9
						c-9.6-4.2-19.5-8.6-29.4-12.6c-5.8-2.4-11.2-4.4-16.5-6.3c-26-9.3-49-14.2-70.5-14.7c-10.9-0.3-21.7,0.5-32.2,1.3
						c-6.8,0.5-13.9,1-20.8,1.3c-30.5,0.9-61.2-4.4-88.8-15.5c-12.9-5.2-25.5-11.7-37.7-18.1c-2.4-1.3-4.8-2.5-7.2-3.7
						c-17.6-9.1-31.6-15.2-43-18.9l0.2-0.5c11.4,3.7,25.5,9.8,43.1,18.9c2.4,1.2,4.8,2.5,7.2,3.7c12.2,6.3,24.8,12.9,37.7,18.1
						c27.5,11,58.1,16.4,88.6,15.5c6.9-0.2,14-0.7,20.8-1.3c10.5-0.8,21.4-1.6,32.3-1.3c21.5,0.5,44.6,5.3,70.6,14.7
						c5.2,1.9,10.6,4,16.5,6.3c9.9,4,19.8,8.4,29.4,12.6c5.9,2.6,12,5.3,18.1,7.9c38,16.2,79.3,30.7,119.2,44.7
						c16.2,5.7,32.9,11.6,49.2,17.5L686.9,112.5z" />
					</g>
					<g>
						<linearGradient id="SVGID_28_" gradientUnits="userSpaceOnUse" x1="154.6204" y1="27.5756"
							x2="687.2151" y2="27.5756">
							<stop offset="0" style="stop-color:#CEEDFD;stop-opacity:0" />
							<stop offset="0.9382" style="stop-color:#00AEFF" />
						</linearGradient>
						<path class="st26" d="M687,104.2c-26.4-10-53.7-19.4-80-28.5c-29.4-10.1-59.8-20.6-88.3-31.7c-5.8-2.3-11.6-4.6-17.2-6.8
						c-10-4-20.4-8.2-30.8-12c-5.9-2.2-11.3-4.1-16.6-5.8c-26-8.6-49.1-13.1-70.4-13.7c-10.5-0.3-21,0.3-31.1,0.9
						C345.4,7,338,7.4,330.8,7.5c-31,0.4-60.7-5.2-88.2-16.7c-11.4-4.7-22.5-10.5-33.3-16.1c-3.7-1.9-7.5-3.9-11.3-5.8
						c-17.2-8.7-31.7-14.6-43.3-17.4l0.1-0.5c11.6,2.9,26.2,8.8,43.4,17.5c3.8,1.9,7.6,3.9,11.3,5.8c10.8,5.6,21.9,11.4,33.3,16.1
						c27.5,11.4,57.1,17,88,16.6c7.2-0.1,14.6-0.5,21.7-0.9c10.2-0.6,20.7-1.2,31.2-0.9c21.4,0.6,44.5,5.1,70.6,13.7
						c5.3,1.7,10.7,3.6,16.6,5.8c10.3,3.8,20.7,8,30.8,12c5.6,2.3,11.4,4.6,17.2,6.8c28.5,11.1,58.9,21.6,88.3,31.7
						c26.4,9.1,53.7,18.5,80.1,28.5L687,104.2z" />
					</g>
					<g>
						<linearGradient id="SVGID_29_" gradientUnits="userSpaceOnUse" x1="155.1539" y1="21.5571"
							x2="687.377" y2="21.5571">
							<stop offset="0" style="stop-color:#CEEDFD;stop-opacity:0" />
							<stop offset="0.9382" style="stop-color:#00AEFF" />
						</linearGradient>
						<path class="st27" d="M687.2,96c-34.4-13.6-70.3-25.4-105-36.9c-21-6.9-42.7-14.1-63.3-21.4c-5.3-1.9-10.7-3.8-15.8-5.7
						c-10.6-3.9-21.6-7.9-32.5-11.5c-5.9-2-11.4-3.7-16.7-5.3c-26.1-7.8-49.2-12-70.4-12.7c-10.1-0.3-20.1,0.1-29.9,0.4
						c-7.5,0.3-15.2,0.6-22.8,0.6c-31-0.2-60.5-6.2-87.6-17.8c-10.1-4.3-20.1-9.5-29.7-14.6c-4.8-2.5-9.7-5.1-14.6-7.5
						c-17.1-8.5-31.8-13.9-43.6-16l0.1-0.5c11.9,2.1,26.6,7.5,43.7,16.1c4.9,2.4,9.9,5,14.6,7.5c9.6,5,19.6,10.2,29.7,14.6
						C270.4-3.1,299.8,2.8,330.7,3c7.6,0,15.3-0.3,22.8-0.6c9.8-0.4,19.8-0.8,29.9-0.4c21.3,0.7,44.4,4.9,70.5,12.7
						c5.3,1.6,10.8,3.3,16.7,5.3c10.9,3.7,21.9,7.6,32.5,11.5c5.2,1.9,10.5,3.8,15.8,5.7c20.6,7.3,42.3,14.5,63.3,21.4
						c34.7,11.4,70.6,23.3,105,36.9L687.2,96z" />
					</g>
					<g>
						<linearGradient id="SVGID_30_" gradientUnits="userSpaceOnUse" x1="155.6879" y1="15.5389"
							x2="687.5388" y2="15.5389">
							<stop offset="0" style="stop-color:#CEEDFD;stop-opacity:0" />
							<stop offset="0.9382" style="stop-color:#00AEFF" />
						</linearGradient>
						<path class="st28" d="M687.3,87.7c-40.9-16.9-84-30.2-125.7-43c-14-4.3-28.5-8.8-42.5-13.3c-4.6-1.5-9.3-3-13.9-4.5
						c-11.4-3.7-23.2-7.6-34.9-11.1c-5.9-1.8-11.4-3.3-16.8-4.8c-26.2-7-49.2-10.9-70.4-11.7c-9.6-0.4-19.1-0.2-28.4,0.1
						c-7.9,0.2-16.1,0.4-24.1,0.2c-31-0.8-60.3-7.2-87.1-19c-9.1-4-18.1-8.7-26.7-13.3c-5.7-3-11.5-6.1-17.3-8.9
						c-16.8-8.3-32-13.3-43.8-14.6l0.1-0.5c11.9,1.3,27.1,6.3,44,14.6c5.8,2.9,11.7,5.9,17.3,8.9c8.7,4.6,17.6,9.3,26.7,13.3
						C270.5-8,299.8-1.6,330.7-0.9c8,0.2,16.2,0,24.1-0.2c9.3-0.2,18.9-0.4,28.4-0.1c21.2,0.8,44.2,4.6,70.5,11.7
						c5.4,1.4,10.9,3,16.8,4.8c11.7,3.5,23.5,7.4,34.9,11.1c4.6,1.5,9.2,3,13.9,4.5c14,4.5,28.5,8.9,42.5,13.3
						c41.7,12.9,84.9,26.1,125.8,43L687.3,87.7z" />
					</g>
					<g>
						<linearGradient id="SVGID_31_" gradientUnits="userSpaceOnUse" x1="156.2219" y1="9.5216"
							x2="687.7001" y2="9.5216">
							<stop offset="0" style="stop-color:#CEEDFD;stop-opacity:0" />
							<stop offset="0.9382" style="stop-color:#00AEFF" />
						</linearGradient>
						<path class="st29" d="M687.5,79.5c-46.3-19.9-95.6-33.8-143.4-47.3c-8.1-2.3-16.6-4.7-24.8-7c-3.6-1.1-7.3-2.1-10.9-3.2
						c-12.5-3.6-25.5-7.4-38.3-10.8c-5.9-1.6-11.5-3-16.9-4.2C427,0.7,404-2.8,382.9-3.7C374-4.1,365-4,356.3-4
						c-8.5,0-17.2,0.1-25.7-0.3c-31-1.3-60.1-8.1-86.5-20.1c-8.2-3.7-16.4-8.1-24.2-12.3c-6.4-3.4-12.9-6.9-19.5-10.1
						c-11.8-5.7-29-12.5-44.1-13.2l0-0.5c15.2,0.6,32.5,7.5,44.3,13.2c6.6,3.2,13.2,6.7,19.6,10.1c7.9,4.2,16,8.5,24.2,12.3
						c26.3,12,55.4,18.8,86.3,20.1c8.5,0.4,17.3,0.3,25.7,0.3c8.7,0,17.7-0.1,26.6,0.3c21.1,0.9,44.1,4.4,70.4,10.7
						c5.4,1.3,10.9,2.7,16.9,4.2c12.8,3.4,25.8,7.2,38.3,10.8c3.6,1.1,7.2,2.1,10.9,3.2c8.2,2.3,16.6,4.7,24.8,7
						C592,45.2,641.4,59.1,687.7,79L687.5,79.5z" />
					</g>
					<g>
						<linearGradient id="SVGID_32_" gradientUnits="userSpaceOnUse" x1="156.7409" y1="3.4952"
							x2="687.8613" y2="3.4952">
							<stop offset="0" style="stop-color:#CEEDFD;stop-opacity:0" />
							<stop offset="0.9382" style="stop-color:#00AEFF" />
						</linearGradient>
						<path class="st30" d="M687.6,71.3C636.9,48.5,582,34.6,529,21.2c-3.1-0.8-6.3-1.6-9.4-2.4l-6-1.5c-14.3-3.6-29-7.4-43.6-10.8
						c-6-1.4-11.5-2.6-17-3.7c-26.3-5.5-49.3-8.7-70.3-9.7c-8.2-0.4-16.4-0.5-24.4-0.6c-9.1-0.1-18.6-0.2-27.8-0.8
						c-31-1.9-59.9-9.1-85.9-21.3c-7.5-3.5-14.9-7.5-22.1-11.4c-7-3.8-14.1-7.7-21.4-11.1c-11.8-5.6-29-12.1-44.4-11.7l0-0.5
						c15.4-0.4,32.8,6.2,44.6,11.8c7.3,3.4,14.5,7.3,21.4,11.1c7.2,3.9,14.6,7.9,22,11.4c25.9,12.2,54.8,19.3,85.7,21.3
						c9.2,0.6,18.6,0.7,27.7,0.8c8,0.1,16.2,0.2,24.4,0.6c21,1,44,4.2,70.4,9.7c5.5,1.1,11,2.4,17,3.7c14.6,3.4,29.3,7.1,43.6,10.8
						l6,1.5c3.1,0.8,6.3,1.6,9.4,2.4c53.1,13.4,108,27.3,158.8,50L687.6,71.3z" />
					</g>
					<g>
						<linearGradient id="SVGID_33_" gradientUnits="userSpaceOnUse" x1="157.2382" y1="-2.6172"
							x2="688.0231" y2="-2.6172">
							<stop offset="0" style="stop-color:#CEEDFD;stop-opacity:0" />
							<stop offset="0.9382" style="stop-color:#00AEFF" />
						</linearGradient>
						<path class="st31" d="M687.8,63c-54.4-25.4-114.8-38.7-168-50.5C502,8.6,486,5.1,469.8,1.9c-6-1.2-11.6-2.2-17.1-3.2
						C426.3-6,403.3-8.9,382.4-10c-7.2-0.4-14.5-0.6-21.6-0.8c-10-0.3-20.3-0.6-30.4-1.4c-31-2.5-59.7-10.1-85.3-22.5
						c-6.9-3.3-13.6-7.1-20.2-10.7c-7.4-4.1-15.1-8.3-23-12c-11.8-5.5-29.1-11.7-44.7-10.3l-0.1-0.5c15.6-1.4,33.1,4.8,44.9,10.3
						c7.9,3.7,15.6,7.9,23,12c6.6,3.6,13.3,7.4,20.2,10.7c25.6,12.4,54.2,19.9,85.1,22.4c10,0.8,20.4,1.1,30.3,1.4
						c7.1,0.2,14.4,0.4,21.6,0.8c21,1.1,44,3.9,70.3,8.7c5.5,1,11.1,2,17.1,3.2c16.2,3.2,32.2,6.7,50,10.7
						C573.2,23.8,633.5,37.1,688,62.5L687.8,63z" />
					</g>
					<g>
						<linearGradient id="SVGID_34_" gradientUnits="userSpaceOnUse" x1="157.7359" y1="-8.8128"
							x2="688.1844" y2="-8.8128">
							<stop offset="0" style="stop-color:#CEEDFD;stop-opacity:0" />
							<stop offset="0.9382" style="stop-color:#00AEFF" />
						</linearGradient>
						<path class="st32" d="M687.9,54.8C635.5,29.3,576.2,16.9,520,6.3c-13.8-2.6-32-6-50.4-9c-5.9-1-11.6-1.9-17.2-2.7
						c-26.3-4-49.3-6.5-70.2-7.7c-6-0.3-12.1-0.6-17.9-0.8c-11.1-0.5-22.7-1-33.9-2.1c-31-3.1-59.5-11.1-84.7-23.6
						c-6.3-3.1-12.5-6.6-18.6-10c-7.9-4.4-16-9-24.3-12.8c-16.8-7.6-32.7-10.8-44.9-8.9l-0.1-0.5c8.7-1.4,23.6-0.9,45.2,8.9
						c8.3,3.8,16.5,8.4,24.3,12.8c6,3.4,12.3,6.9,18.6,10c25.2,12.5,53.6,20.5,84.5,23.6c11.2,1.1,22.7,1.6,33.8,2.1
						c5.9,0.2,11.9,0.5,18,0.8c21,1.2,44,3.7,70.3,7.7c5.5,0.8,11.3,1.7,17.2,2.7c18.4,3,36.6,6.4,50.4,9
						c56.3,10.6,115.6,23.1,168.1,48.5L687.9,54.8z" />
					</g>
					<g>
						<linearGradient id="SVGID_35_" gradientUnits="userSpaceOnUse" x1="158.2348" y1="-15.0712"
							x2="688.3457" y2="-15.0712">
							<stop offset="0" style="stop-color:#CEEDFD;stop-opacity:0" />
							<stop offset="0.9382" style="stop-color:#00AEFF" />
						</linearGradient>
						<path class="st33" d="M688.1,46.5C634.3,19.4,573.2,8.3,520.2,0c-18.2-2.9-34.8-5.3-50.8-7.4c-5.8-0.8-11.6-1.5-17.3-2.2
						c-26-3.2-49-5.3-70.2-6.6c-4.3-0.3-8.7-0.5-12.9-0.7c-12.8-0.7-25.9-1.4-38.7-3c-31-3.7-59.3-12-84.1-24.8
						c-5.8-3-11.6-6.3-17.2-9.5c-8.2-4.7-16.7-9.5-25.4-13.5c-16.8-7.5-32.9-10.2-45.2-7.5l-0.1-0.5c12.5-2.8,28.6-0.1,45.5,7.5
						c8.8,3.9,17.3,8.8,25.5,13.5c5.6,3.2,11.3,6.5,17.1,9.5c24.8,12.7,53,21,84,24.7c12.8,1.5,25.9,2.2,38.7,3
						c4.2,0.2,8.6,0.5,12.9,0.7c21.2,1.3,44.2,3.5,70.2,6.7c5.7,0.7,11.5,1.4,17.3,2.2c16,2.1,32.6,4.5,50.8,7.4
						c53.1,8.3,114.2,19.5,168.1,46.6L688.1,46.5z" />
					</g>
					<g>
						<linearGradient id="SVGID_36_" gradientUnits="userSpaceOnUse" x1="158.7344" y1="-21.3973"
							x2="688.5074" y2="-21.3973">
							<stop offset="0" style="stop-color:#CEEDFD;stop-opacity:0" />
							<stop offset="0.9382" style="stop-color:#00AEFF" />
						</linearGradient>
						<path class="st34" d="M688.3,38.3c-52-27.2-111.4-37.5-167.8-44.6c-16.4-2.1-33.7-4-51.2-5.7c-5.6-0.5-11.5-1.1-17.4-1.7
						c-24.5-2.3-48.1-4.2-70.2-5.6c-1.8-0.1-3.7-0.2-5.5-0.4c-15.2-1-30.8-2-45.9-4.1c-31-4.3-59.1-13-83.6-26
						c-5.4-2.8-10.7-6-15.9-9c-8.5-5-17.2-10.1-26.4-14.1c-16.9-7.4-33-9.6-45.5-6l-0.2-0.5c12.6-3.6,28.9-1.4,45.9,6.1
						c9.2,4,18,9.2,26.5,14.1c5.2,3,10.5,6.1,15.9,9c24.4,12.9,52.4,21.6,83.4,25.9c15.1,2.1,30,3.1,45.9,4.1
						c1.8,0.1,3.7,0.2,5.5,0.4c22.1,1.5,45.7,3.4,70.2,5.6c5.9,0.5,11.8,1.1,17.4,1.7c17.5,1.7,34.8,3.6,51.2,5.7
						c56.5,7.1,115.9,17.4,168,44.7L688.3,38.3z" />
					</g>
					<g>
						<linearGradient id="SVGID_37_" gradientUnits="userSpaceOnUse" x1="159.2353" y1="-27.7734"
							x2="688.6688" y2="-27.7734">
							<stop offset="0" style="stop-color:#CEEDFD;stop-opacity:0" />
							<stop offset="0.9382" style="stop-color:#00AEFF" />
						</linearGradient>
						<path class="st35"
							d="M688.4,30C635.8,1.5,574.1-7.5,520.7-12.6c-15.5-1.5-31.9-2.8-51.6-4.1c-5.8-0.4-11.6-0.8-17.5-1.1
						l-11.8-0.8c-19.1-1.2-38.9-2.5-58.4-3.9c-16.6-1.2-34.2-2.6-51.3-5.3c-31-4.9-58.9-14-83-27.1c-5-2.7-10-5.7-14.8-8.6
						c-8.7-5.2-17.7-10.6-27.2-14.7c-16.9-7.3-33.2-8.9-45.8-4.6l-0.2-0.5c12.7-4.4,29.1-2.7,46.2,4.6c9.5,4.1,18.6,9.5,27.3,14.7
						c4.8,2.9,9.8,5.8,14.8,8.5c24,13.1,51.8,22.2,82.8,27.1c17,2.7,34.6,4.1,51.2,5.3c19.5,1.4,39.2,2.7,58.4,3.9l11.8,0.8
						c5.9,0.4,11.7,0.8,17.5,1.1c19.7,1.3,36.1,2.6,51.6,4.1c35.3,3.3,62,7.4,86.6,13c31.2,7.2,57.8,16.9,81.4,29.7L688.4,30z" />
					</g>
					<g>
						<linearGradient id="SVGID_38_" gradientUnits="userSpaceOnUse" x1="159.737" y1="-34.1871"
							x2="688.8306" y2="-34.1871">
							<stop offset="0" style="stop-color:#CEEDFD;stop-opacity:0" />
							<stop offset="0.9382" style="stop-color:#00AEFF" />
						</linearGradient>
						<path class="st36" d="M688.6,21.8C635.8-7.9,574.2-15.5,520.9-18.9c-18.5-1.2-36.7-1.9-52-2.4l-3.3-0.1
						c-4.8-0.2-9.5-0.3-14.3-0.5c-22.3-0.8-46.3-1.8-70.1-3.6c-20.7-1.6-36.4-3.4-51.1-6.1c-31.5-5.6-58.4-14.8-82.4-28.3
						c-4.7-2.6-9.3-5.4-13.8-8.2c-8.9-5.4-18.1-11.1-27.9-15.2c-23-9.7-38.7-6.2-46-3.2l-0.2-0.5c7.4-3,23.3-6.6,46.5,3.2
						c9.8,4.2,19.1,9.8,28,15.2c4.5,2.7,9.1,5.6,13.8,8.2c23.9,13.4,50.8,22.6,82.2,28.2c14.6,2.6,30.4,4.5,51,6
						c23.8,1.8,47.8,2.8,70.1,3.6c4.8,0.2,9.6,0.3,14.3,0.5l3.3,0.1c15.3,0.5,33.5,1.2,52,2.4c53.4,3.4,115,11,167.9,40.8
						L688.6,21.8z" />
					</g>
					<g>
						<linearGradient id="SVGID_39_" gradientUnits="userSpaceOnUse" x1="160.24" y1="-40.6436"
							x2="688.9918" y2="-40.6436">
							<stop offset="0" style="stop-color:#CEEDFD;stop-opacity:0" />
							<stop offset="0.9382" style="stop-color:#00AEFF" />
						</linearGradient>
						<path class="st37" d="M688.7,13.6c-29.1-17-63.8-28.1-106-33.9c-36.6-5-74.9-5.6-114.1-5.7c-41-0.1-77.8-0.7-114.1-5.5
						c-42.3-5.7-77.1-16.6-106.3-33.5c-4.3-2.5-8.7-5.2-12.9-7.8c-9.1-5.7-18.5-11.5-28.5-15.7c-23.1-9.5-38.9-5.2-46.3-1.8
						l-0.2-0.5c7.5-3.5,23.5-7.9,46.8,1.8c10.1,4.2,19.5,10.1,28.6,15.7c4.2,2.6,8.5,5.3,12.9,7.8c29.2,16.8,63.9,27.8,106.1,33.4
						c36.3,4.9,73.1,5.4,114.1,5.5c39.2,0.1,77.5,0.7,114.1,5.7c42.2,5.8,77,16.9,106.2,33.9L688.7,13.6z" />
					</g>
				</g>
			</g>
		</g>
	</g>
</svg>